<?xml version="1.0" encoding="utf-8"?>
<svg id="svg2" viewBox="0 0 500 670" xmlns="http://www.w3.org/2000/svg">
  <desc>Source: openclipart.org/detail/209545</desc>
  <defs>
    <path id="path-0" d="M 108.423 226.886 C 179.886 302.451 235.407 361.72 273.838 361.72 C 312.759 361.72 340.56 361.72 368.361 361.72 C 382.103 361.72 395.279 336.192 403.112 328.359 C 417.957 310.733 425.353 284.639 425.353 268.587 C 425.353 228.589 419.208 207.282 414.232 182.404 C 328.363 74.357 169.268 91.249 54.212 72.591 C 18.571 72.591 5.3 98.945 -1.39 114.292 C -19.017 154.73 -23.631 205.455 -23.631 249.126 C -6.036 367.202 84.981 399.738 169.585 443.732 C 237.369 463.893 291.633 490.27 341.95 470.143 L 344.73 467.363 C 344.73 465.509 344.73 463.656 344.73 461.803" style="fill: none;"/>
  </defs>
  <path id="path222" style="fill: rgb(255, 255, 255);" d="M 96.878 426.786 C 107.111 427.17 114.523 430.224 119.203 435.826 C 123.89 440.512 124.836 445.341 122.023 450.497 C 119.203 454.714 113.665 456.83 105.235 456.83 C 97.283 456.354 90.329 454.254 84.236 450.497 C 78.706 446.769 77.519 441.847 80.814 435.826 C 84.472 429.734 89.869 426.786 96.878 426.786 Z"/>
  <text style="fill: color(a98-rgb 0.252 0.514 0.556); font-family: Arial, sans-serif; font-size: 250px; line-height: 73.078px; stroke-linecap: square; stroke-linejoin: round; white-space: pre; isolation: isolate; mix-blend-mode: darken; opacity: 0.83;" x="-123.72" y="299.168">Mahajan Store</text>
</svg>